<svg xmlns="http://www.w3.org/2000/svg" viewBox="0 0 1280 1280" width="1280" height="1280" preserveAspectRatio="xMidYMid meet" style="width: 100%; height: 100%; transform: translate3d(0px, 0px, 0px);"><defs><clipPath id="__lottie_element_2"><rect width="1280" height="1280" x="0" y="0"></rect></clipPath><mask id="__lottie_element_48" mask-type="alpha"><g transform="matrix(1,0,0,1,704.0399780273438,361.6260070800781)" opacity="1" style="display: block;"><g opacity="1" transform="matrix(1,0,0,1,187.375,250.51300048828125)"><path fill="rgb(255,255,255)" fill-opacity="1" d=" M-179.0749969482422,124.51000213623047 C-179.875,120.5 -179.22300720214844,94.87999725341797 -178.29600524902344,90.89800262451172 C-169.81300354003906,54.457000732421875 -87.68699645996094,-213.6959991455078 32.277000427246094,-229.90699768066406 C129.2689971923828,-243.01400756835938 179.875,40.2400016784668 179.875,127.93699645996094 C179.875,166.98399353027344 154.29800415039062,196.12899780273438 128.00399780273438,208.95799255371094 C85.26000213623047,229.81199645996094 21.559999465942383,243.01400756835938 -65.59200286865234,220.9409942626953 C-161.0800018310547,196.7570037841797 -175.4759979248047,142.55299377441406 -179.0749969482422,124.51000213623047z"></path><path stroke-linecap="round" stroke-linejoin="round" fill-opacity="0" stroke="rgb(52,52,52)" stroke-opacity="1" stroke-width="3" d=" M-179.0749969482422,124.51000213623047 C-179.875,120.5 -179.22300720214844,94.87999725341797 -178.29600524902344,90.89800262451172 C-169.81300354003906,54.457000732421875 -87.68699645996094,-213.6959991455078 32.277000427246094,-229.90699768066406 C129.2689971923828,-243.01400756835938 179.875,40.2400016784668 179.875,127.93699645996094 C179.875,166.98399353027344 154.29800415039062,196.12899780273438 128.00399780273438,208.95799255371094 C85.26000213623047,229.81199645996094 21.559999465942383,243.01400756835938 -65.59200286865234,220.9409942626953 C-161.0800018310547,196.7570037841797 -175.4759979248047,142.55299377441406 -179.0749969482422,124.51000213623047z"></path></g></g></mask></defs><g clip-path="url(#__lottie_element_2)"><g transform="matrix(1,0,0,1,21.18701171875,-38.31103515625)" opacity="1" style="display: block;"><g opacity="1" transform="matrix(1,0,0,1,618.7440185546875,678.3109741210938)"><path fill="rgb(231,237,241)" fill-opacity="1" d=" M616.364013671875,-15.996999740600586 C613.3380126953125,162.04400634765625 532.5089721679688,338.87701416015625 385.6570129394531,451.22601318359375 C87.9000015258789,679.0260009765625 -356.9020080566406,563.3300170898438 -507.010986328125,220.5229949951172 C-618.4940185546875,-34.07099914550781 -525.7169799804688,-338.822998046875 -300.8399963378906,-498.5840148925781 C-48.21099853515625,-678.0609741210938 315.82598876953125,-618.8140258789062 502.9280090332031,-371.781005859375 C582.052978515625,-267.31201171875 618.4940185546875,-141.35499572753906 616.364013671875,-15.996999740600586z"></path></g></g><g transform="matrix(1,0,0,1,789.52001953125,120.05000305175781)" opacity="1" style="display: block;"><g opacity="1" transform="matrix(1,0,0,1,20.29199981689453,22.45199966430664)"><path stroke-linecap="round" stroke-linejoin="round" fill-opacity="0" stroke="rgb(0,0,0)" stroke-opacity="1" stroke-width="2.997" d=" M-5.158999919891357,-2.875 C-5.158999919891357,-2.875 0.2460000067949295,-13.16100025177002 2.2260000705718994,-14.960000038146973 C2.2260000705718994,-14.960000038146973 2.3329999446868896,-2.2100000381469727 2.3329999446868896,-2.2100000381469727 C2.3329999446868896,-2.2100000381469727 7.894999980926514,-2.9170000553131104 12.800000190734863,-0.5839999914169312 C12.800000190734863,-0.5839999914169312 5.126999855041504,2.5299999713897705 4.732999801635742,4.354000091552734 C4.732999801635742,4.354000091552734 8.168000221252441,14.960000038146973 8.168000221252441,14.960000038146973 C8.168000221252441,14.960000038146973 0.08399999886751175,11.144000053405762 -1.6670000553131104,5.993000030517578 C-1.6670000553131104,5.993000030517578 -8.769000053405762,8.675000190734863 -12.128999710083008,10.970999717712402 C-12.128999710083008,10.970999717712402 -6.447999954223633,1.61899995803833 -6.447999954223633,1.61899995803833 C-7.163000106811523,0.5099999904632568 -12.800000190734863,-5.798999786376953 -12.800000190734863,-5.798999786376953 C-12.800000190734863,-5.798999786376953 -6.982999801635742,-3.2690000534057617 -5.158999919891357,-2.875z"></path></g></g><g transform="matrix(1,0,0,1,1092.802001953125,295.0829772949219)" opacity="1" style="display: block;"><g opacity="1" transform="matrix(1,0,0,1,20.23699951171875,23.60099983215332)"><path fill="rgb(0,221,179)" fill-opacity="1" d=" M-7.104000091552734,-6.059999942779541 C-7.104000091552734,-6.059999942779541 2.813999891281128,-20.917999267578125 6.130000114440918,-23.35099983215332 C6.130000114440918,-23.35099983215332 4.244999885559082,-3.8389999866485596 4.244999885559082,-3.8389999866485596 C4.244999885559082,-3.8389999866485596 12.862000465393066,-4.025000095367432 19.98699951171875,0.33000001311302185 C19.98699951171875,0.33000001311302185 7.754000186920166,3.8580000400543213 6.857999801635742,6.583000183105469 C6.857999801635742,6.583000183105469 10.404999732971191,23.35099983215332 10.404999732971191,23.35099983215332 C10.404999732971191,23.35099983215332 2.6510000228881836,16.00200080871582 -3.190000057220459,8.060999870300293 C-3.190000057220459,8.060999870300293 -11.64900016784668,14.121000289916992 -19.98699951171875,13.98900032043457 C-19.98699951171875,13.98900032043457 -9.79800033569336,0.6039999723434448 -9.79800033569336,0.6039999723434448 C-14.890999794006348,-1.7020000219345093 -18.31599998474121,-11.758999824523926 -18.31599998474121,-11.758999824523926 C-18.31599998474121,-11.758999824523926 -9.829000473022461,-6.955999851226807 -7.104000091552734,-6.059999942779541z"></path></g></g><g transform="matrix(1,0,0,1,324.7619934082031,1038.43994140625)" opacity="1" style="display: block;"><g opacity="1" transform="matrix(1,0,0,1,20.29199981689453,22.45199966430664)"><path stroke-linecap="round" stroke-linejoin="round" fill-opacity="0" stroke="rgb(0,0,0)" stroke-opacity="1" stroke-width="2.997" d=" M-5.158999919891357,-2.875 C-5.158999919891357,-2.875 0.2460000067949295,-13.16100025177002 2.2260000705718994,-14.960000038146973 C2.2260000705718994,-14.960000038146973 2.3329999446868896,-2.2100000381469727 2.3329999446868896,-2.2100000381469727 C2.3329999446868896,-2.2100000381469727 7.894999980926514,-2.9170000553131104 12.800000190734863,-0.5849999785423279 C12.800000190734863,-0.5849999785423279 5.126999855041504,2.5309998989105225 4.732999801635742,4.355000019073486 C4.732999801635742,4.355000019073486 8.168000221252441,14.960000038146973 8.168000221252441,14.960000038146973 C8.168000221252441,14.960000038146973 0.08399999886751175,11.145000457763672 -1.6670000553131104,5.99399995803833 C-1.6670000553131104,5.99399995803833 -8.769000053405762,8.675000190734863 -12.128999710083008,10.972000122070312 C-12.128999710083008,10.972000122070312 -6.447999954223633,1.6200000047683716 -6.447999954223633,1.6200000047683716 C-7.163000106811523,0.5109999775886536 -12.800000190734863,-5.798999786376953 -12.800000190734863,-5.798999786376953 C-12.800000190734863,-5.798999786376953 -6.982999801635742,-3.2690000534057617 -5.158999919891357,-2.875z"></path></g></g><g transform="matrix(1,0,0,1,195.26300048828125,321.69903564453125)" opacity="1" style="display: block;"><g opacity="1" transform="matrix(1,0,0,1,8.371000289916992,554.0269775390625)"><path fill="rgb(0,0,0)" fill-opacity="1" d=" M-1.0609999895095825,-4.014999866485596 C-1.0609999895095825,-4.014999866485596 4.309000015258789,-8.302000045776367 5.808000087738037,-8.807000160217285 C5.808000087738037,-8.807000160217285 2.8399999141693115,-1.8760000467300415 2.8399999141693115,-1.8760000467300415 C2.8399999141693115,-1.8760000467300415 6.019000053405762,-0.9390000104904175 8.121999740600586,1.4889999628067017 C8.121999740600586,1.4889999628067017 3.2269999980926514,1.3539999723434448 2.5810000896453857,2.247999906539917 C2.5810000896453857,2.247999906539917 1.9229999780654907,8.807000160217285 1.9229999780654907,8.807000160217285 C1.9229999780654907,8.807000160217285 -1.5499999523162842,4.821000099182129 -1.274999976158142,1.6160000562667847 C-1.274999976158142,1.6160000562667847 -5.756999969482422,1.3819999694824219 -8.121999740600586,1.8279999494552612 C-8.121999740600586,1.8279999494552612 -2.8259999752044678,-1.8869999647140503 -2.8259999752044678,-1.8869999647140503 C-2.950000047683716,-2.6579999923706055 -4.505000114440918,-7.4120001792907715 -4.505000114440918,-7.4120001792907715 C-4.505000114440918,-7.4120001792907715 -1.9550000429153442,-4.660999774932861 -1.0609999895095825,-4.014999866485596z"></path></g><g opacity="1" transform="matrix(1,0,0,1,587.9509887695312,8.366000175476074)"><path fill="rgb(0,0,0)" fill-opacity="1" d=" M3.9140000343322754,-1.1749999523162842 C3.9140000343322754,-1.1749999523162842 8.309000015258789,4.105999946594238 8.843999862670898,5.59499979019165 C8.843999862670898,5.59499979019165 1.8550000190734863,2.7669999599456787 1.8550000190734863,2.7669999599456787 C1.8550000190734863,2.7669999599456787 0.9819999933242798,5.965000152587891 -1.402999997138977,8.116000175476074 C-1.402999997138977,8.116000175476074 -1.3669999837875366,3.2200000286102295 -2.2739999294281006,2.5920000076293945 C-2.2739999294281006,2.5920000076293945 -8.845000267028809,2.066999912261963 -8.845000267028809,2.066999912261963 C-8.845000267028809,2.066999912261963 -4.929999828338623,-1.4850000143051147 -1.7209999561309814,-1.274999976158142 C-1.7209999561309814,-1.274999976158142 -1.5770000219345093,-5.761000156402588 -2.071000099182129,-8.116000175476074 C-2.071000099182129,-8.116000175476074 1.7510000467300415,-2.8970000743865967 1.7510000467300415,-2.8970000743865967 C2.5190000534057617,-3.0360000133514404 7.241000175476074,-4.686999797821045 7.241000175476074,-4.686999797821045 C7.241000175476074,-4.686999797821045 4.541999816894531,-2.0820000171661377 3.9140000343322754,-1.1749999523162842z"></path></g></g><g transform="matrix(1,0,0,1,695.8399658203125,470.322998046875)" opacity="1" style="display: block;"><g opacity="1" transform="matrix(1,0,0,1,54.61600112915039,107.37300109863281)"><path fill="rgb(0,0,0)" fill-opacity="1" d=" M-37.72700119018555,24.729999542236328 C-37.72700119018555,24.729999542236328 33.15800094604492,-44.38999938964844 33.15800094604492,-44.38999938964844 C33.15800094604492,-44.38999938964844 37.72700119018555,-7.2820000648498535 37.72700119018555,-7.2820000648498535 C37.72700119018555,-7.2820000648498535 -29.020000457763672,44.38999938964844 -29.020000457763672,44.38999938964844 C-29.020000457763672,44.38999938964844 -37.72700119018555,24.729999542236328 -37.72700119018555,24.729999542236328z"></path></g><g opacity="1" transform="matrix(1,0,0,1,23.993999481201172,99.61099243164062)"><path fill="rgb(0,0,0)" fill-opacity="1" d=" M23.743000030517578,-60.152000427246094 C23.743000030517578,-60.152000427246094 10.052000045776367,40.332000732421875 10.052000045776367,40.332000732421875 C9.642999649047852,43.33100128173828 8.32699966430664,46.14400100708008 6.265999794006348,48.361000061035156 C6.140999794006348,48.49599838256836 6.014999866485596,48.630001068115234 5.889999866485596,48.76100158691406 C-4.985000133514404,60.152000427246094 -23.743999481201172,48.36399841308594 -18.511999130249023,33.51100158691406 C-18.511999130249023,33.51100158691406 12.657999992370605,-54.98400115966797 12.657999992370605,-54.98400115966797 C12.657999992370605,-54.98400115966797 23.743000030517578,-60.152000427246094 23.743000030517578,-60.152000427246094z"></path></g></g><g transform="matrix(1,0,0,1,1033.802978515625,757.7779541015625)" opacity="1" style="display: block;"><g opacity="1" transform="matrix(1,0,0,1,42.354000091552734,70.26399993896484)"><path fill="rgb(52,52,52)" fill-opacity="1" d=" M39.257999420166016,20.865999221801758 C36.78300094604492,19.969999313354492 34.30799865722656,19.073999404907227 31.83300018310547,18.17799949645996 C35.51499938964844,27.88800048828125 37.18199920654297,70.01399993896484 26.90399932861328,68.5250015258789 C8.366000175476074,61.979000091552734 -18.707000732421875,48.18600082397461 -28.888999938964844,31.368999481201172 C-39.07099914550781,14.552000045776367 -42.10499954223633,-6.868000030517578 -35.1879997253418,-25.270999908447266 C-28.99799919128418,-41.7400016784668 -3.3910000324249268,-70.01399993896484 14.430000305175781,-53.46799850463867 C33.6150016784668,-35.654998779296875 42.10499954223633,-4.436999797821045 39.257999420166016,20.865999221801758z"></path></g></g><g transform="matrix(1,0,0,1,970.6319580078125,468.15899658203125)" opacity="1" style="display: block;"><g opacity="1" transform="matrix(1,0,0,1,41.68000030517578,127.47100067138672)"><path fill="rgb(0,221,179)" fill-opacity="1" d=" M4.716000080108643,119.23100280761719 C4.716000080108643,119.23100280761719 6.630000114440918,119.14099884033203 6.630000114440918,119.14099884033203 C22.177000045776367,118.4010009765625 34.18000030517578,105.1969985961914 33.439998626708984,89.6500015258789 C33.439998626708984,89.6500015258789 24.775999069213867,-92.4209976196289 24.775999069213867,-92.4209976196289 C24.035999298095703,-107.96900177001953 10.833000183105469,-119.97200012207031 -4.715000152587891,-119.23300170898438 C-4.715000152587891,-119.23300170898438 -6.629000186920166,-119.13999938964844 -6.629000186920166,-119.13999938964844 C-22.176000595092773,-118.4010009765625 -34.18000030517578,-105.197998046875 -33.439998626708984,-89.6500015258789 C-33.439998626708984,-89.6500015258789 -24.774999618530273,92.4209976196289 -24.774999618530273,92.4209976196289 C-24.03499984741211,107.96800231933594 -10.831000328063965,119.97100067138672 4.716000080108643,119.23100280761719z"></path><path stroke-linecap="butt" stroke-linejoin="miter" fill-opacity="0" stroke-miterlimit="10" stroke="rgb(52,52,52)" stroke-opacity="1" stroke-width="3" d=" M4.716000080108643,119.23100280761719 C4.716000080108643,119.23100280761719 6.630000114440918,119.14099884033203 6.630000114440918,119.14099884033203 C22.177000045776367,118.4010009765625 34.18000030517578,105.1969985961914 33.439998626708984,89.6500015258789 C33.439998626708984,89.6500015258789 24.775999069213867,-92.4209976196289 24.775999069213867,-92.4209976196289 C24.035999298095703,-107.96900177001953 10.833000183105469,-119.97200012207031 -4.715000152587891,-119.23300170898438 C-4.715000152587891,-119.23300170898438 -6.629000186920166,-119.13999938964844 -6.629000186920166,-119.13999938964844 C-22.176000595092773,-118.4010009765625 -34.18000030517578,-105.197998046875 -33.439998626708984,-89.6500015258789 C-33.439998626708984,-89.6500015258789 -24.774999618530273,92.4209976196289 -24.774999618530273,92.4209976196289 C-24.03499984741211,107.96800231933594 -10.831000328063965,119.97100067138672 4.716000080108643,119.23100280761719z"></path></g><g opacity="1" transform="matrix(1,0,0,1,100.65899658203125,272.7550048828125)"><path fill="rgb(255,255,255)" fill-opacity="1" d=" M-0.42100000381469727,24.58099937438965 C-0.42100000381469727,24.58099937438965 5.302999973297119,24.006000518798828 5.302999973297119,24.006000518798828 C15.607999801635742,22.97100067138672 23.121999740600586,13.777000427246094 22.086999893188477,3.4719998836517334 C22.086999893188477,3.4719998836517334 20.95599937438965,-7.796000003814697 20.95599937438965,-7.796000003814697 C19.920000076293945,-18.10099983215332 10.72599983215332,-25.615999221801758 0.42100000381469727,-24.58099937438965 C0.42100000381469727,-24.58099937438965 -5.302999973297119,-24.0049991607666 -5.302999973297119,-24.0049991607666 C-15.609000205993652,-22.969999313354492 -23.121999740600586,-13.777000427246094 -22.086999893188477,-3.4719998836517334 C-22.086999893188477,-3.4719998836517334 -20.95599937438965,7.796000003814697 -20.95599937438965,7.796000003814697 C-19.92099952697754,18.101999282836914 -10.72599983215332,25.615999221801758 -0.42100000381469727,24.58099937438965z"></path><path stroke-linecap="round" stroke-linejoin="round" fill-opacity="0" stroke="rgb(52,52,52)" stroke-opacity="1" stroke-width="3" d=" M-0.42100000381469727,24.58099937438965 C-0.42100000381469727,24.58099937438965 5.302999973297119,24.006000518798828 5.302999973297119,24.006000518798828 C15.607999801635742,22.97100067138672 23.121999740600586,13.777000427246094 22.086999893188477,3.4719998836517334 C22.086999893188477,3.4719998836517334 20.95599937438965,-7.796000003814697 20.95599937438965,-7.796000003814697 C19.920000076293945,-18.10099983215332 10.72599983215332,-25.615999221801758 0.42100000381469727,-24.58099937438965 C0.42100000381469727,-24.58099937438965 -5.302999973297119,-24.0049991607666 -5.302999973297119,-24.0049991607666 C-15.609000205993652,-22.969999313354492 -23.121999740600586,-13.777000427246094 -22.086999893188477,-3.4719998836517334 C-22.086999893188477,-3.4719998836517334 -20.95599937438965,7.796000003814697 -20.95599937438965,7.796000003814697 C-19.92099952697754,18.101999282836914 -10.72599983215332,25.615999221801758 -0.42100000381469727,24.58099937438965z"></path></g><g opacity="1" transform="matrix(1,0,0,1,50.29899978637695,258.489990234375)"><path fill="rgb(255,255,255)" fill-opacity="1" d=" M-0.42100000381469727,24.58099937438965 C-0.42100000381469727,24.58099937438965 5.302999973297119,24.006000518798828 5.302999973297119,24.006000518798828 C15.607999801635742,22.97100067138672 23.121999740600586,13.777000427246094 22.086999893188477,3.4719998836517334 C22.086999893188477,3.4719998836517334 20.95599937438965,-7.796000003814697 20.95599937438965,-7.796000003814697 C19.920000076293945,-18.10099983215332 10.72700023651123,-25.615999221801758 0.421999990940094,-24.58099937438965 C0.421999990940094,-24.58099937438965 -5.302000045776367,-24.006000518798828 -5.302000045776367,-24.006000518798828 C-15.607999801635742,-22.969999313354492 -23.121999740600586,-13.777000427246094 -22.086999893188477,-3.4719998836517334 C-22.086999893188477,-3.4719998836517334 -20.95599937438965,7.796000003814697 -20.95599937438965,7.796000003814697 C-19.92099952697754,18.101999282836914 -10.72599983215332,25.615999221801758 -0.42100000381469727,24.58099937438965z"></path><path stroke-linecap="round" stroke-linejoin="round" fill-opacity="0" stroke="rgb(52,52,52)" stroke-opacity="1" stroke-width="1.5" d=" M-0.42100000381469727,24.58099937438965 C-0.42100000381469727,24.58099937438965 5.302999973297119,24.006000518798828 5.302999973297119,24.006000518798828 C15.607999801635742,22.97100067138672 23.121999740600586,13.777000427246094 22.086999893188477,3.4719998836517334 C22.086999893188477,3.4719998836517334 20.95599937438965,-7.796000003814697 20.95599937438965,-7.796000003814697 C19.920000076293945,-18.10099983215332 10.72700023651123,-25.615999221801758 0.421999990940094,-24.58099937438965 C0.421999990940094,-24.58099937438965 -5.302000045776367,-24.006000518798828 -5.302000045776367,-24.006000518798828 C-15.607999801635742,-22.969999313354492 -23.121999740600586,-13.777000427246094 -22.086999893188477,-3.4719998836517334 C-22.086999893188477,-3.4719998836517334 -20.95599937438965,7.796000003814697 -20.95599937438965,7.796000003814697 C-19.92099952697754,18.101999282836914 -10.72599983215332,25.615999221801758 -0.42100000381469727,24.58099937438965z"></path></g><g opacity="1" transform="matrix(1,0,0,1,95.57599639892578,146.6959991455078)"><path fill="rgb(0,221,179)" fill-opacity="1" d=" M5.179999828338623,128.9770050048828 C5.179999828338623,128.9770050048828 7.093999862670898,128.88699340820312 7.093999862670898,128.88699340820312 C22.642000198364258,128.14700317382812 34.64500045776367,114.94300079345703 33.904998779296875,99.39600372314453 C33.904998779296875,99.39600372314453 24.312000274658203,-102.16600036621094 24.312000274658203,-102.16600036621094 C23.57200050354004,-117.71299743652344 10.369000434875488,-129.7169952392578 -5.177999973297119,-128.9770050048828 C-5.177999973297119,-128.9770050048828 -7.0929999351501465,-128.88699340820312 -7.0929999351501465,-128.88699340820312 C-22.641000747680664,-128.14700317382812 -34.64500045776367,-114.94200134277344 -33.904998779296875,-99.3949966430664 C-33.904998779296875,-99.3949966430664 -24.312000274658203,102.16699981689453 -24.312000274658203,102.16699981689453 C-23.57200050354004,117.71399688720703 -10.366999626159668,129.7169952392578 5.179999828338623,128.9770050048828z"></path><path stroke-linecap="butt" stroke-linejoin="miter" fill-opacity="0" stroke-miterlimit="10" stroke="rgb(52,52,52)" stroke-opacity="1" stroke-width="3" d=" M5.179999828338623,128.9770050048828 C5.179999828338623,128.9770050048828 7.093999862670898,128.88699340820312 7.093999862670898,128.88699340820312 C22.642000198364258,128.14700317382812 34.64500045776367,114.94300079345703 33.904998779296875,99.39600372314453 C33.904998779296875,99.39600372314453 24.312000274658203,-102.16600036621094 24.312000274658203,-102.16600036621094 C23.57200050354004,-117.71299743652344 10.369000434875488,-129.7169952392578 -5.177999973297119,-128.9770050048828 C-5.177999973297119,-128.9770050048828 -7.0929999351501465,-128.88699340820312 -7.0929999351501465,-128.88699340820312 C-22.641000747680664,-128.14700317382812 -34.64500045776367,-114.94200134277344 -33.904998779296875,-99.3949966430664 C-33.904998779296875,-99.3949966430664 -24.312000274658203,102.16699981689453 -24.312000274658203,102.16699981689453 C-23.57200050354004,117.71399688720703 -10.366999626159668,129.7169952392578 5.179999828338623,128.9770050048828z"></path></g></g><g transform="matrix(0.9135454297065735,0.4067366421222687,-0.4067366421222687,0.9135454297065735,925.0806884765625,792.010498046875)" opacity="1" style="display: block;"><g opacity="1" transform="matrix(1,0,0,1,29.232999801635742,79.85099792480469)"><path fill="rgb(52,52,52)" fill-opacity="1" d=" M15.70300006866455,71.74600219726562 C15.70300006866455,71.74600219726562 15.70300006866455,71.74600219726562 15.70300006866455,71.74600219726562 C11.951000213623047,72.35900115966797 8.36400032043457,69.51699829101562 7.690999984741211,65.39800262451172 C7.690999984741211,65.39800262451172 -20.593000411987305,-56.64899826049805 -20.593000411987305,-56.64899826049805 C-21.740999221801758,-63.67399978637695 -17.483999252319336,-70.21700286865234 -11.085000038146973,-71.26300048828125 C-4.375,-72.35900115966797 1.9509999752044678,-66.98799896240234 2.694000005722046,-59.56399917602539 C2.694000005722046,-59.56399917602539 21.344999313354492,63.68899917602539 21.344999313354492,63.68899917602539 C21.740999221801758,67.64099884033203 19.274999618530273,71.16200256347656 15.70300006866455,71.74600219726562z"></path><path stroke-linecap="round" stroke-linejoin="round" fill-opacity="0" stroke="rgb(52,52,52)" stroke-opacity="1" stroke-width="2.997" d=" M15.70300006866455,71.74600219726562 C15.70300006866455,71.74600219726562 15.70300006866455,71.74600219726562 15.70300006866455,71.74600219726562 C11.951000213623047,72.35900115966797 8.36400032043457,69.51699829101562 7.690999984741211,65.39800262451172 C7.690999984741211,65.39800262451172 -20.593000411987305,-56.64899826049805 -20.593000411987305,-56.64899826049805 C-21.740999221801758,-63.67399978637695 -17.483999252319336,-70.21700286865234 -11.085000038146973,-71.26300048828125 C-4.375,-72.35900115966797 1.9509999752044678,-66.98799896240234 2.694000005722046,-59.56399917602539 C2.694000005722046,-59.56399917602539 21.344999313354492,63.68899917602539 21.344999313354492,63.68899917602539 C21.740999221801758,67.64099884033203 19.274999618530273,71.16200256347656 15.70300006866455,71.74600219726562z"></path></g><g opacity="1" transform="matrix(1,0,0,1,32.70800018310547,141.17799377441406)"><path fill="rgb(52,52,52)" fill-opacity="1" d=" M15.668000221252441,8.37600040435791 C12.529999732971191,14.244999885559082 2.9709999561309814,15.253000259399414 -5.682000160217285,10.626999855041504 C-14.335000038146973,6.000999927520752 -18.805999755859375,-2.506999969482422 -15.668999671936035,-8.37600040435791 C-12.531000137329102,-14.244999885559082 -2.9730000495910645,-15.253000259399414 5.679999828338623,-10.626999855041504 C14.333000183105469,-6.000999927520752 18.805999755859375,2.506999969482422 15.668000221252441,8.37600040435791z"></path><path stroke-linecap="round" stroke-linejoin="round" fill-opacity="0" stroke="rgb(52,52,52)" stroke-opacity="1" stroke-width="2.997" d=" M15.668000221252441,8.37600040435791 C12.529999732971191,14.244999885559082 2.9709999561309814,15.253000259399414 -5.682000160217285,10.626999855041504 C-14.335000038146973,6.000999927520752 -18.805999755859375,-2.506999969482422 -15.668999671936035,-8.37600040435791 C-12.531000137329102,-14.244999885559082 -2.9730000495910645,-15.253000259399414 5.679999828338623,-10.626999855041504 C14.333000183105469,-6.000999927520752 18.805999755859375,2.506999969482422 15.668000221252441,8.37600040435791z"></path></g></g><g transform="matrix(0.9998477101325989,-0.017452405765652657,0.017452405765652657,0.9998477101325989,778.1353759765625,778.790283203125)" opacity="1" style="display: block;"><g opacity="1" transform="matrix(1,0,0,1,43.75,80.3239974975586)"><path fill="rgb(52,52,52)" fill-opacity="1" d=" M-12.85099983215332,72.22699737548828 C-12.85099983215332,72.22699737548828 -12.85099983215332,72.22699737548828 -12.85099983215332,72.22699737548828 C-16.599000930786133,71.59200286865234 -19.072999954223633,67.74099731445312 -18.375999450683594,63.625999450683594 C-18.375999450683594,63.625999450683594 -5.605000019073486,-61.00199890136719 -5.605000019073486,-61.00199890136719 C-4.415999889373779,-68.02100372314453 1.7309999465942383,-72.83200073242188 8.12399959564209,-71.7490005493164 C14.82699966430664,-70.61299896240234 19.07200050354004,-63.483001708984375 17.371000289916992,-56.21799850463867 C17.371000289916992,-56.21799850463867 -4.90500020980835,66.43099975585938 -4.90500020980835,66.43099975585938 C-5.809999942779541,70.29900360107422 -9.281999588012695,72.83200073242188 -12.85099983215332,72.22699737548828z"></path><path stroke-linecap="round" stroke-linejoin="round" fill-opacity="0" stroke="rgb(52,52,52)" stroke-opacity="1" stroke-width="2.997" d=" M-12.85099983215332,72.22699737548828 C-12.85099983215332,72.22699737548828 -12.85099983215332,72.22699737548828 -12.85099983215332,72.22699737548828 C-16.599000930786133,71.59200286865234 -19.072999954223633,67.74099731445312 -18.375999450683594,63.625999450683594 C-18.375999450683594,63.625999450683594 -5.605000019073486,-61.00199890136719 -5.605000019073486,-61.00199890136719 C-4.415999889373779,-68.02100372314453 1.7309999465942383,-72.83200073242188 8.12399959564209,-71.7490005493164 C14.82699966430664,-70.61299896240234 19.07200050354004,-63.483001708984375 17.371000289916992,-56.21799850463867 C17.371000289916992,-56.21799850463867 -4.90500020980835,66.43099975585938 -4.90500020980835,66.43099975585938 C-5.809999942779541,70.29900360107422 -9.281999588012695,72.83200073242188 -12.85099983215332,72.22699737548828z"></path></g><g opacity="1" transform="matrix(1,0,0,1,24.472000122070312,138.6020050048828)"><path fill="rgb(52,52,52)" fill-opacity="1" d=" M12.111000061035156,12.99899959564209 C7.242000102996826,17.53499984741211 -2.128000020980835,15.394000053405762 -8.815999984741211,8.21500015258789 C-15.503999710083008,1.034999966621399 -16.979000091552734,-8.463000297546387 -12.109999656677246,-12.99899959564209 C-7.239999771118164,-17.535999298095703 2.128999948501587,-15.392999649047852 8.817000389099121,-8.21399974822998 C15.505999565124512,-1.034999966621399 16.979999542236328,8.463000297546387 12.111000061035156,12.99899959564209z"></path><path stroke-linecap="round" stroke-linejoin="round" fill-opacity="0" stroke="rgb(52,52,52)" stroke-opacity="1" stroke-width="2.997" d=" M12.111000061035156,12.99899959564209 C7.242000102996826,17.53499984741211 -2.128000020980835,15.394000053405762 -8.815999984741211,8.21500015258789 C-15.503999710083008,1.034999966621399 -16.979000091552734,-8.463000297546387 -12.109999656677246,-12.99899959564209 C-7.239999771118164,-17.535999298095703 2.128999948501587,-15.392999649047852 8.817000389099121,-8.21399974822998 C15.505999565124512,-1.034999966621399 16.979999542236328,8.463000297546387 12.111000061035156,12.99899959564209z"></path></g></g><g transform="matrix(1,0,0,1,704.0399780273438,361.6260070800781)" opacity="1" style="display: block;"><g opacity="1" transform="matrix(1,0,0,1,187.375,250.51300048828125)"><path fill="rgb(255,255,255)" fill-opacity="1" d=" M-179.0749969482422,124.51000213623047 C-179.875,120.5 -179.22300720214844,94.87999725341797 -178.29600524902344,90.89800262451172 C-169.81300354003906,54.457000732421875 -87.68699645996094,-213.6959991455078 32.277000427246094,-229.90699768066406 C129.2689971923828,-243.01400756835938 179.875,40.2400016784668 179.875,127.93699645996094 C179.875,166.98399353027344 154.29800415039062,196.12899780273438 128.00399780273438,208.95799255371094 C85.26000213623047,229.81199645996094 21.559999465942383,243.01400756835938 -65.59200286865234,220.9409942626953 C-161.0800018310547,196.7570037841797 -175.4759979248047,142.55299377441406 -179.0749969482422,124.51000213623047z"></path><path stroke-linecap="round" stroke-linejoin="round" fill-opacity="0" stroke="rgb(52,52,52)" stroke-opacity="1" stroke-width="3" d=" M-179.0749969482422,124.51000213623047 C-179.875,120.5 -179.22300720214844,94.87999725341797 -178.29600524902344,90.89800262451172 C-169.81300354003906,54.457000732421875 -87.68699645996094,-213.6959991455078 32.277000427246094,-229.90699768066406 C129.2689971923828,-243.01400756835938 179.875,40.2400016784668 179.875,127.93699645996094 C179.875,166.98399353027344 154.29800415039062,196.12899780273438 128.00399780273438,208.95799255371094 C85.26000213623047,229.81199645996094 21.559999465942383,243.01400756835938 -65.59200286865234,220.9409942626953 C-161.0800018310547,196.7570037841797 -175.4759979248047,142.55299377441406 -179.0749969482422,124.51000213623047z"></path></g><g opacity="1" transform="matrix(1,0,0,1,306.864013671875,262.0480041503906)"><path stroke-linecap="round" stroke-linejoin="round" fill-opacity="0" stroke="rgb(52,52,52)" stroke-opacity="1" stroke-width="3" d=" M-41.87200164794922,-194.34800720214844 C-41.87200164794922,-194.34800720214844 41.87200164794922,-74.62100219726562 12.692000389099121,194.34800720214844"></path></g></g><g transform="matrix(0.9993905425071716,0.03490794450044632,-0.03490794450044632,0.9993905425071716,946.1214599609375,605.9199829101562)" opacity="1" style="display: block;"><g opacity="1" transform="matrix(1,0,0,1,51.667999267578125,46.117000579833984)"><path fill="rgb(0,0,0)" fill-opacity="1" d=" M42.63100051879883,42.81800079345703 C38.584999084472656,43.47600173950195 34.055999755859375,42.4010009765625 30.542999267578125,39.99399948120117 C12.361000061035156,27.54199981689453 -51.41899871826172,-17.743000030517578 -36.47800064086914,-30.389999389648438 C-21.020000457763672,-43.47600173950195 14.763999938964844,-5.932000160217285 47.97100067138672,32.577999114990234 C51.417999267578125,36.57500076293945 47.76100158691406,41.98400115966797 42.63100051879883,42.81800079345703z"></path></g></g><g transform="matrix(0.9993905425071716,0.03490794450044632,-0.03490794450044632,0.9993905425071716,946.1214599609375,605.9199829101562)" opacity="1" style="display: block;"><g opacity="1" transform="matrix(1,0,0,1,117.05699920654297,47.016998291015625)"><path fill="rgb(0,0,0)" fill-opacity="1" d=" M-14.194000244140625,36.882999420166016 C-14.194000244140625,36.882999420166016 40.95899963378906,-33.41699981689453 40.95899963378906,-33.41699981689453 C40.95899963378906,-33.41699981689453 31.538999557495117,-43.95100021362305 31.538999557495117,-43.95100021362305 C31.538999557495117,-43.95100021362305 -31.589000701904297,19.225000381469727 -31.589000701904297,19.225000381469727 C-31.589000701904297,19.225000381469727 -40.959999084472656,30.07200050354004 -35.082000732421875,37.32699966430664 C-29.715999603271484,43.95100021362305 -19.45599937438965,43.59000015258789 -14.194000244140625,36.882999420166016z"></path></g><g opacity="1" transform="matrix(0.9455185532569885,0.32556816935539246,-0.32556816935539246,0.9455185532569885,165.87408447265625,14.52230453491211)"><path fill="rgb(0,0,0)" fill-opacity="1" d=" M4.394000053405762,10.065999984741211 C11.446999549865723,9.631999969482422 18.55299949645996,4.093999862670898 19.634000778198242,-3.746000051498413 C19.743999481201172,-4.539999961853027 19.774999618530273,-5.420000076293945 19.361000061035156,-6.077000141143799 C18.85300064086914,-6.883999824523926 17.868000030517578,-7.065000057220459 16.990999221801758,-7.140999794006348 C13.359000205993652,-7.454999923706055 9.685999870300293,-7.135000228881836 6.140999794006348,-6.196000099182129 C7.309000015258789,-5.540999889373779 8.609999656677246,-7.449999809265137 8.055999755859375,-8.777999877929688 C7.501999855041504,-10.107000350952148 5.933000087738037,-10.527999877929688 4.6620001792907715,-10.189000129699707 C3.3919999599456787,-9.85099983215332 2.306999921798706,-8.956000328063965 1.156000018119812,-8.26099967956543 C-1.812000036239624,-6.4710001945495605 -5.39300012588501,-6.007999897003174 -8.645999908447266,-6.992000102996826 C-10.477999687194824,-7.546999931335449 -12.206999778747559,-8.539999961853027 -14.085000038146973,-8.84000015258789 C-15.96399974822998,-9.138999938964844 -18.159000396728516,-8.522000312805176 -19.05699920654297,-6.645999908447266 C-19.774999618530273,-5.146999835968018 -19.45599937438965,-3.2360000610351562 -18.645000457763672,-1.7979999780654907 C-14.428000450134277,5.677999973297119 -3.1089999675750732,10.527999877929688 4.394000053405762,10.065999984741211z"></path></g></g><g mask="url(#__lottie_element_48)" style="display: block;"><g transform="matrix(1,0.000008453406735497992,-0.000008453406735497992,1,822.446533203125,375.940673828125)" opacity="1"><g opacity="1" transform="matrix(1,0,0,1,98.53800201416016,77.05699920654297)"><path fill="rgb(52,52,52)" fill-opacity="1" d=" M-92.73899841308594,-2.2790000438690186 C-92.73899841308594,-2.2790000438690186 -98.28800201416016,23.18600082397461 -36.944000244140625,47.36800003051758 C37.73500061035156,76.80699920654297 98.28800201416016,45.85100173950195 98.28800201416016,32.09000015258789 C98.28800201416016,32.09000015258789 64.14099884033203,-67.44000244140625 14.802000045776367,-70.78199768066406 C-41.63399887084961,-76.80699920654297 -92.73899841308594,-2.2790000438690186 -92.73899841308594,-2.2790000438690186z"></path></g></g></g><g transform="matrix(1,0.000008453406735497992,-0.000008453406735497992,1,890.076416015625,627.1182861328125)" opacity="1" style="display: block;"><g opacity="1" transform="matrix(1,0,0,1,25.785999298095703,23.6299991607666)"><path fill="rgb(0,221,179)" fill-opacity="1" d=" M5.010000228881836,15.9399995803833 C5.010000228881836,15.9399995803833 -11.015999794006348,16.089000701904297 -11.015999794006348,16.089000701904297 C-15.401000022888184,16.1299991607666 -18.28700065612793,12.595000267028809 -17.461000442504883,8.192999839782715 C-17.461000442504883,8.192999839782715 -14.442999839782715,-7.895999908447266 -14.442999839782715,-7.895999908447266 C-13.618000030517578,-12.29800033569336 -9.392999649047852,-15.89900016784668 -5.007999897003174,-15.9399995803833 C-5.007999897003174,-15.9399995803833 11.017999649047852,-16.089000701904297 11.017999649047852,-16.089000701904297 C15.402000427246094,-16.1299991607666 18.285999298095703,-12.595000267028809 17.461000442504883,-8.192999839782715 C17.461000442504883,-8.192999839782715 14.442999839782715,7.895999908447266 14.442999839782715,7.895999908447266 C13.616999626159668,12.29800033569336 9.395000457763672,15.89900016784668 5.010000228881836,15.9399995803833z"></path><path stroke-linecap="butt" stroke-linejoin="miter" fill-opacity="0" stroke-miterlimit="10" stroke="rgb(52,52,52)" stroke-opacity="1" stroke-width="3" d=" M5.010000228881836,15.9399995803833 C5.010000228881836,15.9399995803833 -11.015999794006348,16.089000701904297 -11.015999794006348,16.089000701904297 C-15.401000022888184,16.1299991607666 -18.28700065612793,12.595000267028809 -17.461000442504883,8.192999839782715 C-17.461000442504883,8.192999839782715 -14.442999839782715,-7.895999908447266 -14.442999839782715,-7.895999908447266 C-13.618000030517578,-12.29800033569336 -9.392999649047852,-15.89900016784668 -5.007999897003174,-15.9399995803833 C-5.007999897003174,-15.9399995803833 11.017999649047852,-16.089000701904297 11.017999649047852,-16.089000701904297 C15.402000427246094,-16.1299991607666 18.285999298095703,-12.595000267028809 17.461000442504883,-8.192999839782715 C17.461000442504883,-8.192999839782715 14.442999839782715,7.895999908447266 14.442999839782715,7.895999908447266 C13.616999626159668,12.29800033569336 9.395000457763672,15.89900016784668 5.010000228881836,15.9399995803833z"></path></g><g opacity="1" transform="matrix(1,0,0,1,25.799999237060547,23.538999557495117)"><path fill="rgb(52,52,52)" fill-opacity="1" d=" M9.321999549865723,-8.184000015258789 C10.128999710083008,-8.04699993133545 10.57800006866455,-7.315999984741211 10.326000213623047,-6.551000118255615 C10.072999954223633,-5.785999774932861 9.21399974822998,-5.2769999504089355 8.406999588012695,-5.414999961853027 C6.978000164031982,-5.6579999923706055 4.426000118255615,-3.6050000190734863 1.2330000400543213,0.6759999990463257 C-2.8440001010894775,6.139999866485596 -6.210000038146973,8.70300006866455 -9.244999885559082,8.404000282287598 C-10.067999839782715,8.322999954223633 -10.57800006866455,7.630000114440918 -10.385000228881836,6.857999801635742 C-10.192000389099121,6.085000038146973 -9.369000434875488,5.52400016784668 -8.545000076293945,5.605999946594238 C-7.046999931335449,5.752999782562256 -4.445000171661377,3.6110000610351562 -1.2230000495910645,-0.7080000042915344 C2.880000114440918,-6.206999778747559 6.27400016784668,-8.70300006866455 9.321999549865723,-8.184000015258789z"></path></g></g><g transform="matrix(1,0.000008453406735497992,-0.000008453406735497992,1,772.3216552734375,477.7122497558594)" opacity="1" style="display: block;"><g opacity="1" transform="matrix(1,0,0,1,88.22200012207031,80.38999938964844)"><path fill="rgb(255,255,255)" fill-opacity="1" d=" M-41.507999420166016,-72.72000122070312 C-25.61400032043457,-49.97999954223633 11.416000366210938,-29.388999938964844 74.89299774169922,-22.726999282836914 C79.96099853515625,3.384999990463257 80.5530014038086,33.020999908447266 73.25,65.57099914550781 C73.25,65.57099914550781 -27.33300018310547,72.72000122070312 -80.552001953125,5.146999835968018 C-68.6729965209961,-26.86400032043457 -56.99300003051758,-53.94200134277344 -41.507999420166016,-72.72000122070312z"></path><path stroke-linecap="round" stroke-linejoin="round" fill-opacity="0" stroke="rgb(52,52,52)" stroke-opacity="1" stroke-width="3.068" d=" M-41.507999420166016,-72.72000122070312 C-25.61400032043457,-49.97999954223633 11.416000366210938,-29.388999938964844 74.89299774169922,-22.726999282836914 C79.96099853515625,3.384999990463257 80.5530014038086,33.020999908447266 73.25,65.57099914550781 C73.25,65.57099914550781 -27.33300018310547,72.72000122070312 -80.552001953125,5.146999835968018 C-68.6729965209961,-26.86400032043457 -56.99300003051758,-53.94200134277344 -41.507999420166016,-72.72000122070312z"></path></g><g opacity="1" transform="matrix(1,0,0,1,43.224998474121094,61.43199920654297)"><path fill="rgb(52,52,52)" fill-opacity="1" d=" M4.85099983215332,3.259999990463257 C2.6489999294281006,6.535999774932861 -1.3079999685287476,7.732999801635742 -3.986999988555908,5.932000160217285 C-6.664999961853027,4.131999969482422 -7.052000045776367,0.01600000075995922 -4.848999977111816,-3.259999990463257 C-2.6470000743865967,-6.5370001792907715 1.309000015258789,-7.732999801635742 3.98799991607666,-5.933000087738037 C6.665999889373779,-4.131999969482422 7.052999973297119,-0.01600000075995922 4.85099983215332,3.259999990463257z"></path></g><g opacity="1" transform="matrix(1,0,0,1,121.68699645996094,89.95999908447266)"><path fill="rgb(52,52,52)" fill-opacity="1" d=" M5.868000030517578,1.2949999570846558 C6.702000141143799,-2.4830000400543213 4.750999927520752,-6.125999927520752 1.5099999904632568,-6.841000080108643 C-1.7309999465942383,-7.556000232696533 -5.033999919891357,-5.072999954223633 -5.868000030517578,-1.2949999570846558 C-6.702000141143799,2.4830000400543213 -4.750999927520752,6.125999927520752 -1.5099999904632568,6.841000080108643 C1.7309999465942383,7.556000232696533 5.033999919891357,5.072999954223633 5.868000030517578,1.2949999570846558z"></path></g><g opacity="1" transform="matrix(1,0,0,1,68.06500244140625,96.96600341796875)"><path stroke-linecap="butt" stroke-linejoin="miter" fill-opacity="0" stroke-miterlimit="10" stroke="rgb(52,52,52)" stroke-opacity="1" stroke-width="5" d=" M5.455999851226807,0 C5.455999851226807,3.997999906539917 3.013000011444092,7.239999771118164 0,7.239999771118164 C-3.013000011444092,7.239999771118164 -5.455999851226807,3.997999906539917 -5.455999851226807,0 C-5.455999851226807,-3.997999906539917 -3.013000011444092,-7.239999771118164 0,-7.239999771118164 C3.013000011444092,-7.239999771118164 5.455999851226807,-3.997999906539917 5.455999851226807,0z"></path></g></g><g transform="matrix(0.9902680516242981,-0.13917310535907745,0.13917310535907745,0.9902680516242981,57.88970947265625,243.34939575195312)" opacity="1" style="display: block;"><g opacity="1" transform="matrix(1,0,0,1,363.97900390625,411.2850036621094)"><path fill="rgb(255,255,255)" fill-opacity="1" d=" M326.4679870605469,148.6699981689453 C325.0920104980469,147.51499938964844 323.6470031738281,146.4040069580078 322.1310119628906,145.33799743652344 C288.73699951171875,121.85600280761719 261.9280090332031,100.6259994506836 271.60198974609375,53.676998138427734 C286.1199951171875,-16.775999069213867 301.8299865722656,-75.40499877929688 186.00999450683594,-239.593994140625 C70.18900299072266,-403.78399658203125 70.77100372314453,-389.8389892578125 11.333000183105469,-374.7829895019531 C-48.10599899291992,-359.72698974609375 -356.47900390625,-217.6269989013672 -319.6310119628906,-138.14500427246094 C-282.78399658203125,-58.6619987487793 -175.50900268554688,154.4720001220703 -120.33999633789062,184.9510040283203 C-63.49599838256836,216.35499572753906 -40.85200119018555,190.01199340820312 0.36399999260902405,240.3249969482422 C22.913000106811523,267.85198974609375 68.91100311279297,351.30999755859375 68.91100311279297,351.30999755859375 C68.91100311279297,351.30999755859375 88.81900024414062,403.7850036621094 207.99899291992188,319.6159973144531 C246.7760009765625,292.2309875488281 306.49700927734375,262.52398681640625 334.4939880371094,223.1719970703125 C356.0610046386719,192.8560028076172 356.47900390625,173.85499572753906 326.4679870605469,148.6699981689453z"></path><path stroke-linecap="round" stroke-linejoin="round" fill-opacity="0" stroke="rgb(0,0,0)" stroke-opacity="1" stroke-width="3" d=" M326.4679870605469,148.6699981689453 C325.0920104980469,147.51499938964844 323.6470031738281,146.4040069580078 322.1310119628906,145.33799743652344 C288.73699951171875,121.85600280761719 261.9280090332031,100.6259994506836 271.60198974609375,53.676998138427734 C286.1199951171875,-16.775999069213867 301.8299865722656,-75.40499877929688 186.00999450683594,-239.593994140625 C70.18900299072266,-403.78399658203125 70.77100372314453,-389.8389892578125 11.333000183105469,-374.7829895019531 C-48.10599899291992,-359.72698974609375 -356.47900390625,-217.6269989013672 -319.6310119628906,-138.14500427246094 C-282.78399658203125,-58.6619987487793 -175.50900268554688,154.4720001220703 -120.33999633789062,184.9510040283203 C-63.49599838256836,216.35499572753906 -40.85200119018555,190.01199340820312 0.36399999260902405,240.3249969482422 C22.913000106811523,267.85198974609375 68.91100311279297,351.30999755859375 68.91100311279297,351.30999755859375 C68.91100311279297,351.30999755859375 88.81900024414062,403.7850036621094 207.99899291992188,319.6159973144531 C246.7760009765625,292.2309875488281 306.49700927734375,262.52398681640625 334.4939880371094,223.1719970703125 C356.0610046386719,192.8560028076172 356.47900390625,173.85499572753906 326.4679870605469,148.6699981689453z"></path></g><g opacity="1" transform="matrix(1,0,0,1,539.9240112304688,649.0789794921875)"><path fill="rgb(255,255,255)" fill-opacity="1" d=" M-102.0260009765625,128.2779998779297 C-102.0260009765625,128.2779998779297 -71.16200256347656,141.0399932861328 -4.135000228881836,91.8280029296875 C75.0790023803711,33.66899871826172 182.67799377441406,-16.20599937438965 169.08599853515625,-78.62300109863281 C155.49400329589844,-141.0399932861328 13.232999801635742,-66.0510025024414 -29.92300033569336,-35.64400100708008 C-73.0790023803711,-5.236000061035156 -182.67799377441406,102.96800231933594 -102.0260009765625,128.2779998779297z"></path><path stroke-linecap="round" stroke-linejoin="round" fill-opacity="0" stroke="rgb(0,0,0)" stroke-opacity="1" stroke-width="3" d=" M-102.0260009765625,128.2779998779297 C-102.0260009765625,128.2779998779297 -71.16200256347656,141.0399932861328 -4.135000228881836,91.8280029296875 C75.0790023803711,33.66899871826172 182.67799377441406,-16.20599937438965 169.08599853515625,-78.62300109863281 C155.49400329589844,-141.0399932861328 13.232999801635742,-66.0510025024414 -29.92300033569336,-35.64400100708008 C-73.0790023803711,-5.236000061035156 -182.67799377441406,102.96800231933594 -102.0260009765625,128.2779998779297z"></path></g><g opacity="1" transform="matrix(1,0,0,1,550.0170288085938,666.7529907226562)"><path fill="rgb(255,255,255)" fill-opacity="1" d=" M-105.92400360107422,121.05500030517578 C-105.92400360107422,121.05500030517578 -75.68099975585938,134.70700073242188 -6.401000022888184,88.68399810791016 C75.4749984741211,34.29199981689453 185.3280029296875,-10.9399995803833 174.6699981689453,-72.822998046875 C164.01199340820312,-134.70599365234375 18.349000930786133,-66.00399780273438 -26.197999954223633,-37.62799835205078 C-70.74600219726562,-9.251999855041504 -185.3280029296875,93.28800201416016 -105.92400360107422,121.05500030517578z"></path><path stroke-linecap="round" stroke-linejoin="round" fill-opacity="0" stroke="rgb(0,0,0)" stroke-opacity="1" stroke-width="3" d=" M-105.92400360107422,121.05500030517578 C-105.92400360107422,121.05500030517578 -75.68099975585938,134.70700073242188 -6.401000022888184,88.68399810791016 C75.4749984741211,34.29199981689453 185.3280029296875,-10.9399995803833 174.6699981689453,-72.822998046875 C164.01199340820312,-134.70599365234375 18.349000930786133,-66.00399780273438 -26.197999954223633,-37.62799835205078 C-70.74600219726562,-9.251999855041504 -185.3280029296875,93.28800201416016 -105.92400360107422,121.05500030517578z"></path></g><g opacity="1" transform="matrix(1,0,0,1,251.47999572753906,170.60299682617188)"><path stroke-linecap="round" stroke-linejoin="round" fill-opacity="0" stroke="rgb(0,0,0)" stroke-opacity="1" stroke-width="3" d=" M189.72500610351562,-133.92999267578125 C189.72500610351562,-133.92999267578125 207.1320037841797,-120.5989990234375 189.072998046875,-87.87200164794922 C170.50999450683594,-54.23099899291992 103.66799926757812,20.8799991607666 -17.94099998474121,77.40499877929688 C-139.55099487304688,133.92999267578125 -187.88900756835938,130.76800537109375 -207.1320037841797,102.53800201416016"></path></g><g opacity="1" transform="matrix(1,0,0,1,564.9619750976562,676.9630126953125)"><path fill="rgb(255,255,255)" fill-opacity="1" d=" M-100.81600189208984,123.072998046875 C-100.81600189208984,123.072998046875 -71.46600341796875,133.96800231933594 -5.429999828338623,86.40299987792969 C72.61299896240234,30.19099998474121 177.7519989013672,-19.198999404907227 166.52200317382812,-76.58300018310547 C155.29200744628906,-133.96800231933594 16.014999389648438,-60.29199981689453 -26.46500015258789,-30.850000381469727 C-68.94499969482422,-1.4079999923706055 -177.7519989013672,102.0469970703125 -100.81600189208984,123.072998046875z"></path><path stroke-linecap="round" stroke-linejoin="round" fill-opacity="0" stroke="rgb(0,0,0)" stroke-opacity="1" stroke-width="3" d=" M-100.81600189208984,123.072998046875 C-100.81600189208984,123.072998046875 -71.46600341796875,133.96800231933594 -5.429999828338623,86.40299987792969 C72.61299896240234,30.19099998474121 177.7519989013672,-19.198999404907227 166.52200317382812,-76.58300018310547 C155.29200744628906,-133.96800231933594 16.014999389648438,-60.29199981689453 -26.46500015258789,-30.850000381469727 C-68.94499969482422,-1.4079999923706055 -177.7519989013672,102.0469970703125 -100.81600189208984,123.072998046875z"></path></g><g opacity="1" transform="matrix(1,0,0,1,585.0159912109375,681.6680297851562)"><path stroke-linecap="round" stroke-linejoin="round" fill-opacity="0" stroke="rgb(0,0,0)" stroke-opacity="1" stroke-width="3" d=" M-145.98599243164062,85.99299621582031 C-145.98599243164062,85.99299621582031 -115.74299621582031,99.6449966430664 -46.4630012512207,53.62200164794922 C35.41299819946289,-0.7699999809265137 145.98599243164062,-35.99100112915039 135.3280029296875,-97.8740005493164 C135.0229949951172,-99.6449966430664 135.8489990234375,-96.31300354003906 135.3280029296875,-97.8740005493164"></path></g></g><g transform="matrix(0.9902680516242981,-0.13917310535907745,0.13917310535907745,0.9902680516242981,685.2567138671875,465.3785400390625)" opacity="1" style="display: block;"><g opacity="1" transform="matrix(1,0,0,1,48.89699935913086,21.05299949645996)"><path fill="rgb(0,0,0)" fill-opacity="1" d=" M7.544000148773193,-5.190000057220459 C6.388999938964844,-7.008999824523926 4.302000045776367,-8.397000312805176 2.1670000553131104,-8.107999801635742 C1.9279999732971191,-10.553000450134277 1.6770000457763672,-13.04699993133545 0.6859999895095825,-15.295000076293945 C-0.3059999942779541,-17.54400062561035 -2.183000087738037,-19.54599952697754 -4.590000152587891,-20.03700065612793 C-8.33899974822998,-20.802000045776367 -12.00100040435791,-17.51300048828125 -12.842000007629395,-13.781000137329102 C-13.682999610900879,-10.048999786376953 -12.381999969482422,-6.165999889373779 -10.652000427246094,-2.75 C-7.679999828338623,3.115000009536743 -4.60099983215332,20.80299949645996 4.53000020980835,18.773000717163086 C13.684000015258789,16.73699951171875 11.052000045776367,0.33500000834465027 7.544000148773193,-5.190000057220459z"></path></g></g></g></svg>